HIERARCHY
ROOT pelvis
{
  OFFSET 0 100 0
  CHANNELS 6 Xposition Yposition Zposition Zrotation Xrotation Yrotation
  JOINT pelvis_right_femur
  {
    OFFSET -10.78128 -3.44521 -0.5502486
    CHANNELS 3 Zrotation Xrotation Yrotation
    JOINT right_femur_tibia
    {
      OFFSET -0.8047443 -44.0398 -0.1307829
      CHANNELS 3 Zrotation Xrotation Yrotation
      JOINT right_tibia_foot
      {
        OFFSET 3.006224 -47.83518 -5
        CHANNELS 3 Zrotation Xrotation Yrotation
        End Site
        {
          OFFSET 0 -5 15
        }
      }
    }
  }
  JOINT pelvis_left_femur
  {
    OFFSET 10.78128 -3.44521 -0.5502486
    CHANNELS 3 Zrotation Xrotation Yrotation
    JOINT left_femur_tibia
    {
      OFFSET 0.8047443 -44.0398 -0.1307829
      CHANNELS 3 Zrotation Xrotation Yrotation
      JOINT left_tibia_foot
      {
        OFFSET -4.370144 -48.10324 -4.275266
        CHANNELS 3 Zrotation Xrotation Yrotation
        End Site
        {
          OFFSET 0 -5 15
        }
      }
    }
  }
  JOINT pelvis_spine1
  {
    OFFSET 0 6.468898 -3.129235
    CHANNELS 3 Zrotation Xrotation Yrotation
    JOINT spine1
    {
      OFFSET 0 23.15396 4.99043
      CHANNELS 3 Zrotation Xrotation Yrotation
      JOINT spine2
      {
        OFFSET 0 20.79997 -5.064912
        CHANNELS 3 Zrotation Xrotation Yrotation
        JOINT neck
        {
          OFFSET 0 14.38658 9.616178
          CHANNELS 3 Zrotation Xrotation Yrotation
          End Site
          {
            OFFSET 0 20 0
          }
        }
      }
      JOINT right_manubrium
      {
        OFFSET -5.722621 16.35077 3.967754
        CHANNELS 3 Zrotation Xrotation Yrotation
        JOINT right_clavicle
        {
          OFFSET -13.16364 1.694482 -4.693211
          CHANNELS 3 Zrotation Xrotation Yrotation
          JOINT right_humerus
          {
            OFFSET -28.5034 -0.3100689 -2.792744
            CHANNELS 3 Zrotation Xrotation Yrotation
            JOINT right_radius
            {
              OFFSET -25.15693 0.02248979 -1.271978
              CHANNELS 3 Zrotation Xrotation Yrotation
              End Site
              {
                OFFSET -15 0 0
              }
            }
          }
        }
      }
      JOINT left_manubrium
      {
        OFFSET 5.722621 16.35077 3.967754
        CHANNELS 3 Zrotation Xrotation Yrotation
        JOINT left_clavicle
        {
          OFFSET 13.16364 1.694482 -4.693211
          CHANNELS 3 Zrotation Xrotation Yrotation
          JOINT left_humerus
          {
            OFFSET 29.39168 -1.063119 -2.237045
            CHANNELS 3 Zrotation Xrotation Yrotation
            JOINT left_radius
            {
              OFFSET 24.59957 -0.9528479 0.9047498
              CHANNELS 3 Zrotation Xrotation Yrotation
              End Site
              {
                OFFSET 15 -0 -0
              }
            }
          }
        }
      }
    }
  }
}
MOTION
Frames: 7
Frame Time: 0.0416666666667
1724.166 109.8549 2206.158 8.539196 -1.16293 70.1495 -1.281409 7.845597 2.224385 -0 57.71551 -0 -11.98596 14.83877 -0.3717015 -5.946687 -5.35847 -10.256 -0 18.76266 -0 1.154598 -10.23745 19.78933 -3.517111 -1.160723 3.896072 -0.7748235 12.99082 -4.196394 1.830946 23.34428 4.869194 3.024174 -20.4954 5.863502 1.233116 -20.79556 11.55109 89.21242 24.38329 -10.72914 -0 0 12.61698 -22.56735 4.560136 14.93615 2.456868 -18.38144 -5.153683 -90.02012 20.62867 22.44739 0 0 -8.31316 4.313084 9.427181 10.38967
1729.388 111.6121 2207.287 8.270284 -1.365254 71.29328 -0.434958 0.138789 2.423094 -0 58.23764 -0 -11.74751 14.20653 -1.512884 -6.017291 -0.8861676 -10.25576 -0 16.45005 -0 2.361509 -12.34957 19.41909 -3.375368 -0.8351678 3.191975 -0.001224385 13.48744 -5.435955 1.532761 23.0758 5.008799 2.645063 -21.38412 6.005631 1.260433 -20.8817 12.00723 90.52118 23.76628 -13.32696 -0 0 11.56832 -20.97938 4.413795 14.05625 2.407242 -19.75638 -5.639367 -88.6628 21.19253 20.53524 0 0 -12.30031 4.649047 9.26516 10.2874
1734.009 112.7737 2208.276 7.589219 -1.655554 72.32795 0.5551627 -7.979876 2.10328 -0 53.62352 -0 -11.01642 11.33775 -2.475373 -5.77845 3.234631 -10.40372 -0 13.37535 -0 2.55938 -14.92037 18.78005 -2.952928 -0.3622287 2.644225 0.7408439 13.28811 -6.447257 1.348182 22.93638 5.30831 2.391751 -22.01971 6.40885 0.9961901 -20.71318 12.12306 91.37344 22.92372 -15.63698 -0 0 10.94014 -19.36413 4.472216 12.75261 2.973755 -21.03272 -5.841046 -87.78609 22.12365 18.45481 0 0 -16.12818 4.943888 9.705192 9.941166
1738.26 113.1182 2209.238 6.573586 -1.917029 73.12346 1.362825 -16.1291 1.142726 -0 44.00673 -0 -10.11 7.311677 -3.021443 -5.363099 7.086168 -10.49423 -0 10.52572 -0 1.84008 -17.81874 17.63518 -2.434783 0.175912 2.250283 1.42155 12.5481 -7.223172 1.298222 22.90921 5.725341 2.280252 -22.45069 7.022364 0.4309009 -20.19071 11.96467 91.99147 21.98377 -17.82991 -0 0 10.22574 -18.07203 4.8307 11.22812 4.01396 -22.32905 -5.83059 -86.98373 23.0833 15.88655 0 0 -20.10332 5.417401 10.63284 9.069705
1742.47 112.6076 2210.308 5.452579 -1.932356 73.66045 1.59308 -22.86833 -0.5262551 -0 30.84444 -0 -9.357359 3.466806 -3.101737 -5.02139 10.4818 -10.16452 -0 8.811541 -0 0.5737091 -20.50315 15.93209 -2.114983 0.5774169 1.992448 2.058529 11.58791 -7.816703 1.317932 22.97314 6.139618 2.212281 -22.75512 7.665006 -0.444046 -19.37526 11.69116 92.68861 20.98749 -19.98546 -0 0 8.888497 -17.45851 5.372863 9.927811 5.118995 -23.6904 -5.742173 -85.85252 23.57013 12.71776 0 0 -24.29082 6.13992 11.57599 7.584541
1746.926 111.4236 2211.57 4.466344 -1.592004 74.0512 1.24244 -26.8408 -2.458867 -0 17.92263 -0 -9.03033 0.9850209 -2.923751 -4.982612 13.23563 -9.342947 -0 8.280858 -0 -0.5615788 -22.3581 14.09693 -2.150656 0.5772338 1.845086 2.652682 10.80464 -8.318703 1.293944 23.04807 6.402053 2.052627 -23.09791 8.10393 -1.478899 -18.60325 11.49381 93.65522 19.98233 -22.04325 -0 0 6.920945 -17.43924 5.765084 9.199676 5.819692 -25.02118 -5.679931 -84.43469 23.35811 9.576146 0 0 -28.37983 6.881851 12.05064 5.942178
1751.745 109.8523 2213.003 3.386704 -1.040163 74.42992 0.9240392 -28.74114 -3.845731 -0 8.273022 -0 -9.071995 0.1207054 -2.624382 -5.198593 15.2742 -8.451476 -0 8.074825 -0 -1.079761 -23.36934 12.67168 -2.358933 0.1327238 1.837416 3.200103 10.35961 -8.821916 1.140566 22.90155 6.558105 1.86504 -23.77104 8.273038 -2.284177 -18.25 11.46215 94.63864 19.37629 -23.89476 -0 0 5.081942 -17.45006 5.882164 8.970851 6.094736 -26.183 -5.551777 -83.26112 22.72073 7.557756 0 0 -32.00375 7.383246 11.97596 4.775682
